<svg xmlns="http://www.w3.org/2000/svg" xmlns:xlink="http://www.w3.org/1999/xlink" xmlns:sketch="http://www.bohemiancoding.com/sketch/ns" height="432" width="432" viewBox="0 0 432 432" preserveAspectRatio="xMidYMid meet" version="1.1">

    <!-- Generator: Sketch 3.3.3 (12072) - http://www.bohemiancoding.com/sketch -->
    <title>DoubleD</title>
    <desc>Created with Sketch.</desc>
    <defs/>
  <g id="Page-1" stroke="none" stroke-width="1" fill="none" fill-rule="evenodd" sketch:type="MSPage">
    <animateTransform attributeType="xml" attributeName="transform" type="rotate" from="0 216 216" to="180 216 216" dur="2s" begin="click + 3" fill="freeze" id="clock" repeatCount="1"/>
    <animateTransform attributeType="xml" attributeName="transform" type="rotate" to="0 216 216" from="180 216 216" dur="3s" begin="clock.end + 3" fill="freeze" id="counter" repeatCount="1"/>
      <g id="DoubleD" sketch:type="MSLayerGroup">
            <g id="Page-1" sketch:type="MSShapeGroup">
                <g id="Portrait---6-Plus">
                    <g id="DoubleD">
                        <path d="M258.971643 56.6 L258.971643 375.4 C329.05872 356.4 380.6 292.2 380.6 216 C380.625756 139.8 329.1 75.6 259 56.6 L258.971643 56.6 L258.971643 56.6 Z M177.868967 55.3 C156.046538 60.5 135.9 70 118.4 82.9 C77.6122158 113 51.1 161.4 51.1 216 C51.1458865 294.1 105.2 359.5 177.9 376.7 C177.868967 298.2 177.9 137.2 177.9 55.3 L177.868967 55.3 L177.868967 55.3 Z M431.315029 216 C431.315029 335.2 334.9 431.9 215.9 431.9 C96.907546 431.9 0.5 335.2 0.5 216 C0.456664186 149 30.9 89.1 78.7 49.5 C92.5455516 38.1 107.8 28.3 124.2 20.6 C152.044409 7.4 183.1 0.1 215.9 0.1 C334.864097 0.1 431.3 96.8 431.3 216 L431.315029 216 L431.315029 216 Z" id="Fill-32" fill="#0DACFF"/>
                        <path d="M258.971683 56.6 L258.971683 375.4 C329.05867 356.4 380.6 292.2 380.6 216 C380.625907 139.8 329.1 75.6 259 56.6 L258.971683 56.6 L258.971683 56.6 Z M177.868937 55.3 C156.046528 60.5 135.9 70 118.4 82.9 C77.6122158 113 51.1 161.4 51.1 216 C51.1458765 294.1 105.2 359.5 177.9 376.7 C177.868937 298.2 177.9 137.2 177.9 55.3 L177.868937 55.3 L177.868937 55.3 Z M431.314878 216 C431.314878 335.2 334.9 431.9 215.9 431.9 C96.9076063 431.9 0.5 335.2 0.5 216 C0.456664186 149 30.9 89.1 78.7 49.5 C92.5455717 38.1 107.8 28.3 124.2 20.6 C152.044449 7.4 183.1 0.1 215.9 0.1 C334.864147 0.1 431.3 96.8 431.3 216 L431.314878 216 L431.314878 216 Z" id="Stroke-34" stroke="#06567F" stroke-width="2"/>
                        <path d="M259.916919 56.6 L259.916919 375.4 C329.53603 356.4 380.8 292.2 380.8 216 C380.758772 139.8 329.5 75.6 259.9 56.6 L259.916919 56.6 L259.916919 56.6 Z M431.109477 216 C431.109477 335.2 335.3 431.9 217.1 431.9 L217.11878 0.1 C335.302627 0.1 431.1 96.8 431.1 216 L431.109477 216 L431.109477 216 Z" id="Fill-35" fill="#0DACFF"/>
                        <path d="M259.916919 56.6 L259.916919 375.4 C329.535959 356.4 380.8 292.2 380.8 216 C380.758732 139.8 329.5 75.6 259.9 56.6 L259.916919 56.6 L259.916919 56.6 Z M431.109477 216 C431.109477 335.2 335.3 431.9 217.1 431.9 L217.11878 0.1 C335.302587 0.1 431.1 96.8 431.1 216 L431.109477 216 L431.109477 216 Z" id="Stroke-36" stroke="#0A81BF"/>
                        <path d="M172.197209 56.6 L172.197209 375.4 C102.578199 356.4 51.4 292.2 51.4 216 C51.3553563 139.8 102.6 75.6 172.2 56.6 L172.197209 56.6 L172.197209 56.6 Z M1.00465116 216 C1.00465116 335.2 96.8 431.9 215 431.9 L214.995349 0.1 C96.8115014 0.1 1 96.8 1 216 L1.00465116 216 L1.00465116 216 Z" id="Fill-37" fill="#0A81BF"/>
                        <path d="M172.197209 56.6 L172.197209 375.4 C102.578169 356.4 51.4 292.2 51.4 216 C51.3553965 139.8 102.6 75.6 172.2 56.6 L172.197209 56.6 L172.197209 56.6 Z M1.00465116 216 C1.00465116 335.2 96.8 431.9 215 431.9 L214.995349 0.1 C96.8115416 0.1 1 96.8 1 216 L1.00465116 216 L1.00465116 216 Z" id="Stroke-38" stroke="#0DACFF"/>
                        <path d="M243.856671 208.4 C244.895785 207 245.4 205 245.4 202.5 C245.415335 199.9 244.9 198 243.9 196.6 C242.817557 195.2 241.3 194.6 239.4 194.6 C237.451408 194.6 236 195.2 234.9 196.6 C233.864936 198 233.3 199.9 233.3 202.5 C233.341509 205 233.9 207 234.9 208.4 C235.958673 209.7 237.5 210.4 239.4 210.4 C241.328699 210.4 242.8 209.7 243.9 208.4 L243.856671 208.4 Z M249.16078 212 C247.020515 214.7 243.8 216 239.4 216 C235.055242 216 231.8 214.7 229.7 212 C227.52559 209.4 226.5 206.2 226.5 202.5 C226.455474 198.8 227.5 195.7 229.7 193 C231.80612 190.3 235.1 188.9 239.4 188.9 C243.771393 188.9 247 190.3 249.2 193 C251.301045 195.7 252.4 198.8 252.4 202.5 C252.371161 206.2 251.3 209.4 249.2 212 L249.16078 212 Z M269.07445 189.8 L275.79764 189.8 L279.659403 208 L283.614221 189.8 L290.52352 189.8 L283.172212 215.1 L276.355967 215.1 L272.377886 196.6 L268.353277 215.1 L261.467242 215.1 L254.34857 189.8 L261.467242 189.8 L265.422059 208 L269.07445 189.8 Z M314.659539 191.2 C316.326775 192.6 317.2 194.9 317.2 198 L317.16038 215.1 L310.367399 215.1 L310.367399 199.7 C310.367399 198.4 310.2 197.3 309.8 196.6 C309.18095 195.3 307.9 194.7 306.1 194.7 C303.861325 194.7 302.3 195.6 301.5 197.5 C301.046434 198.5 300.8 199.8 300.8 201.4 L300.829309 215.1 L294.222437 215.1 L294.222437 189.8 L300.619937 189.8 L300.619937 193.5 C301.472941 192.2 302.3 191.3 303 190.7 C304.404161 189.7 306.1 189.2 308.2 189.2 C310.848194 189.2 313 189.8 314.7 191.2 L314.659539 191.2 Z M320.673189 194.7 L320.673189 190 L324.209261 190 L324.209261 182.9 L330.769605 182.9 L330.769605 190 L334.887269 190 L334.887269 194.7 L330.769605 194.7 L330.769605 208.1 C330.769605 209.2 330.9 209.8 331.2 210.1 C331.428743 210.3 332.2 210.4 333.6 210.4 C333.786124 210.4 334 210.4 334.2 210.4 C334.449138 210.4 334.7 210.4 334.9 210.4 L334.887269 215.3 L331.746678 215.5 C328.613826 215.6 326.5 215 325.3 213.8 C324.581475 213.1 324.2 211.9 324.2 210.3 L324.209261 194.7 L320.673189 194.7 Z M354.987048 208.4 C356.026162 207 356.5 205 356.5 202.5 C356.545711 199.9 356 198 355 196.6 C353.947934 195.2 352.5 194.6 350.5 194.6 C348.581784 194.6 347.1 195.2 346 196.6 C344.995312 198 344.5 199.9 344.5 202.5 C344.471886 205 345 207 346 208.4 C347.08905 209.7 348.6 210.4 350.5 210.4 C352.459076 210.4 353.9 209.7 355 208.4 L354.987048 208.4 Z M360.291156 212 C358.150891 214.7 354.9 216 350.5 216 C346.185618 216 342.9 214.7 340.8 212 C338.655966 209.4 337.6 206.2 337.6 202.5 C337.58585 198.8 338.7 195.7 340.8 193 C342.936496 190.3 346.2 188.9 350.5 188.9 C354.90177 188.9 358.2 190.3 360.3 193 C362.431421 195.7 363.5 198.8 363.5 202.5 C363.501538 206.2 362.4 209.4 360.3 212 L360.291156 212 Z M380.204826 189.8 L386.928016 189.8 L390.78978 208 L394.744597 189.8 L401.653896 189.8 L394.302588 215.1 L387.486344 215.1 L383.508262 196.6 L379.483654 215.1 L372.597618 215.1 L365.478946 189.8 L372.597618 189.8 L376.552436 208 L380.204826 189.8 Z M425.789916 191.2 C427.457151 192.6 428.3 194.9 428.3 198 L428.290757 215.1 L421.497776 215.1 L421.497776 199.7 C421.497776 198.4 421.3 197.3 421 196.6 C420.311327 195.3 419.1 194.7 417.2 194.7 C414.991702 194.7 413.4 195.6 412.6 197.5 C412.176811 198.5 412 199.8 412 201.4 L411.959686 215.1 L405.352814 215.1 L405.352814 189.8 L411.750313 189.8 L411.750313 193.5 C412.603317 192.2 413.4 191.3 414.2 190.7 C415.534538 189.7 417.3 189.2 419.4 189.2 C421.97857 189.2 424.1 189.8 425.8 191.2 L425.789916 191.2 Z" opacity="0" id="owntown" stroke="#0DACFF" fill="#0A81BF">
                          <animate id="showDowntown" attributeName="opacity" from="0" to="1" dur="3s" fill="freeze" begin="clock.begin - 3"/>
                          <animate id="animation2" attributeName="opacity" from="1" to="0" dur="2s" fill="freeze" begin="clock.begin"/>
                            <animate id="animation3" attributeName="opacity" from="0" to="1" dur="3s" fill="freeze" begin="animation.end + 2"/>
                              <animate id="hideDowntown" attributeName="opacity" from="1" to="0" dur="3s" fill="freeze" begin="animation3.end + 2"/></path>
                        <path d="M174.8 210.5 L182.6 210.5 L182.6 217.6 L174.8 217.6 L174.8 210.5 ZM182.6 207 L174.8 207 L174.8 177.7 L182.6 177.7 L182.6 207 ZM161.4 187.1 C161.3 185.7 160.9 184.8 160.4 184.2 C159.4 183.2 157.7 182.7 155.1 182.7 C153.6 182.7 152.4 182.9 151.5 183.3 C150.6 183.8 150.2 184.5 150.2 185.3 C150.2 186.2 150.6 186.9 151.3 187.3 C152 187.8 154.7 188.5 159.3 189.6 C162.6 190.4 164.9 191.5 166.3 192.7 C167.6 193.9 168.3 195.7 168.3 198 C168.3 200.7 167.3 203 165.1 204.9 C163 206.9 160 207.9 156.2 207.9 C152.5 207.9 149.5 207.1 147.2 205.7 C144.9 204.2 143.6 201.7 143.3 198.1 L150.9 198.1 C151 199.1 151.3 199.9 151.8 200.4 C152.6 201.5 154 202 156.1 202 C157.7 202 158.9 201.7 159.6 201.2 C160.3 200.7 160.7 200.1 160.7 199.4 C160.7 198.5 160.3 197.9 159.6 197.5 C158.8 197.1 156.1 196.4 151.6 195.4 C148.5 194.7 146.3 193.6 144.7 192.1 C143.2 190.6 142.5 188.8 142.5 186.6 C142.5 183.7 143.6 181.3 145.7 179.5 C147.9 177.7 151.2 176.8 155.7 176.8 C160.3 176.8 163.7 177.7 165.9 179.7 C168.1 181.6 169.2 184.1 169.2 187.1 L161.4 187.1 ZM139.8 201.3 L139.8 206.8 L135.7 206.8 L135.7 214.9 L128.1 214.9 L128.1 206.8 L123.4 206.8 L123.4 201.3 L128.1 201.3 L128.1 185.8 C128.1 184.6 128 183.9 127.7 183.6 C127.4 183.3 126.5 183.1 124.9 183.1 C124.7 183.1 124.4 183.1 124.2 183.2 C123.9 183.2 123.7 183.2 123.4 183.2 L123.4 177.5 L127 177.3 C130.6 177.2 133.1 177.8 134.4 179.2 C135.3 180.1 135.7 181.5 135.7 183.3 L135.7 201.3 L139.8 201.3 ZM102.2 207.7 C102.1 207.7 101.9 207.7 101.6 207.7 L101.6 199.8 C102 199.9 102.5 199.9 102.9 199.9 C103.2 200 103.5 200 103.8 200 C106.8 200 108.9 199 110 197 C110.5 195.8 110.9 194.1 110.9 191.7 L110.8 177.7 L118.6 177.7 L118.6 207 L111.2 207 L111.2 201.9 C110.1 203.9 109 205.2 108.2 205.9 C106.7 207.1 104.9 207.7 102.6 207.7 C102.4 207.7 102.3 207.7 102.2 207.7 L102.2 207.7 ZM78.8 185.5 C77.6 187.1 77 189.4 77 192.3 C77 195.3 77.6 197.5 78.8 199.1 C80 200.7 81.7 201.5 83.9 201.5 C86.2 201.5 87.9 200.7 89.1 199.1 C90.3 197.5 90.9 195.3 90.9 192.3 C90.9 189.4 90.3 187.1 89.1 185.5 C87.9 183.9 86.2 183.1 83.9 183.1 C81.7 183.1 80 183.9 78.8 185.5 L78.8 185.5 ZM72.6 181.3 C75.1 178.3 78.9 176.7 83.9 176.7 C88.9 176.7 92.7 178.3 95.2 181.3 C97.6 184.4 98.9 188 98.9 192.3 C98.9 196.6 97.6 200.2 95.2 203.3 C92.7 206.4 88.9 208 83.9 208 C78.9 208 75.1 206.4 72.7 203.3 C70.2 200.2 69 196.6 69 192.3 C68.9 188 70.2 184.4 72.7 181.3 L72.6 181.3 Z" id="istro" opacity="0" stroke="#0A81BF" fill="#0DACFF">
                          <animate id="animation" attributeName="opacity" from="0" to="1" dur="4s" fill="freeze" begin="clock.begin + 0.5"/>
                            <animate id="animation4" attributeName="opacity" from="1" to="0" dur="4s" fill="freeze" begin="animation.end"/></path>
                    </g>
                </g>
            </g>
        </g>
    </g>
</svg>
