<?xml version="1.0" encoding="UTF-8" standalone="no"?>
<svg width="432px" height="436px" viewBox="0 0 432 432" version="1.1" xmlns="http://www.w3.org/2000/svg" xmlns:xlink="http://www.w3.org/1999/xlink" xmlns:sketch="http://www.bohemiancoding.com/sketch/ns">
  <animateTransform attributeType="xml"

	                    attributeName="transform"

	                    type="rotate"

	                    from="0 216 216"

	                    to="180 216 216"

	                    dur="2s"

                      begin="click + 3"
                      fill="freeze"
                      id="clock"

	                    repeatCount="1"/>
                      <animateTransform attributeType="xml"

                    	                    attributeName="transform"

                    	                    type="rotate"

                    	                    to="0 216 216"

                    	                    from="180 216 216"

                    	                    dur="3s"

                                          begin="clock.end + 3"
                                          fill="freeze"

                                          id="counter"

                    	                    repeatCount="1"/>
    <!-- Generator: Sketch 3.3.3 (12072) - http://www.bohemiancoding.com/sketch -->
    <title>DoubleD copy</title>
    <desc>Created with Sketch.</desc>
    <defs></defs>
    <g id="Page-1" stroke="none" stroke-width="1" fill="none" fill-rule="evenodd" sketch:type="MSPage">
        <g id="DoubleD-copy" sketch:type="MSLayerGroup">
            <g id="Page-1" sketch:type="MSShapeGroup">
                <g id="Portrait---6-Plus">
                    <g id="DoubleD">
                        <path d="M258.971643,56.6033526 L258.971643,375.396246 C329.05872,356.414567 380.625756,292.242575 380.625756,216 C380.625756,139.757425 329.05862,75.5853321 258.971643,56.6033526 L258.971643,56.6033526 L258.971643,56.6033526 Z M177.868967,55.3172986 C156.046538,60.4835163 135.901072,69.9989693 118.393719,82.9005991 C77.6122158,112.953433 51.1458865,161.379226 51.1458865,216 C51.1458865,294.06893 105.213198,359.482169 177.868164,376.6825 C177.868967,298.23984 177.868967,137.173864 177.868967,55.3172986 L177.868967,55.3172986 L177.868967,55.3172986 Z M431.315029,216 C431.315029,335.238631 334.864097,431.9007 215.885872,431.9007 C96.907546,431.9007 0.456664186,335.238631 0.456664186,216 C0.456664186,148.990772 30.9174966,89.1115535 78.7191405,49.5112186 C92.5455516,38.0569898 107.82278,28.2993153 124.233354,20.5564688 C152.044409,7.43461953 183.110433,0.0992595349 215.885872,0.0992595349 C334.864097,0.0992595349 431.315029,96.7613693 431.315029,216 L431.315029,216 L431.315029,216 Z" id="Fill-32" fill="#0DACFF"></path>
                        <path d="M258.971683,56.6033526 L258.971683,375.396145 C329.05867,356.414567 380.625907,292.242525 380.625907,215.99996 C380.625907,139.757425 329.05867,75.585322 258.971683,56.6033526 L258.971683,56.6033526 L258.971683,56.6033526 Z M177.868937,55.3172986 C156.046528,60.4834259 135.901052,69.9989894 118.393779,82.9005187 C77.6122158,112.953433 51.1458765,161.379166 51.1458765,215.99996 C51.1458765,294.06892 105.213188,359.482169 177.868214,376.6825 C177.868937,298.23978 177.868937,137.173774 177.868937,55.3172986 L177.868937,55.3172986 L177.868937,55.3172986 Z M431.314878,215.99996 C431.314878,335.23853 334.864147,431.90054 215.885831,431.90054 C96.9076063,431.90054 0.456664186,335.23853 0.456664186,215.99996 C0.456664186,148.990702 30.9175167,89.1115233 78.7191204,49.5112186 C92.5455717,38.0569596 107.82282,28.2992973 124.233375,20.5564417 C152.044449,7.43456528 183.110383,0.0992595349 215.885831,0.0992595349 C334.864147,0.0992595349 431.314878,96.761299 431.314878,215.99996 L431.314878,215.99996 L431.314878,215.99996 Z" id="Stroke-34" stroke="#06567F" stroke-width="2"></path>
                        <path d="M259.916919,56.6033526 L259.916919,375.396246 C329.53603,356.414567 380.758772,292.242575 380.758772,216 C380.758772,139.757425 329.535929,75.5853321 259.916919,56.6033526 L259.916919,56.6033526 L259.916919,56.6033526 Z M431.109477,216 C431.109477,335.238631 335.302627,431.9007 217.11878,431.9007 L217.11878,0.0992595349 C335.302627,0.0992595349 431.109477,96.7613693 431.109477,216 L431.109477,216 L431.109477,216 Z" id="Fill-35" fill="#0DACFF"></path>
                        <path d="M259.916919,56.6033526 L259.916919,375.396145 C329.535959,356.414567 380.758732,292.242525 380.758732,215.99996 C380.758732,139.757425 329.535869,75.585322 259.916919,56.6033526 L259.916919,56.6033526 L259.916919,56.6033526 Z M431.109477,215.99996 C431.109477,335.23853 335.302587,431.90054 217.11878,431.90054 L217.11878,0.0992595349 C335.302587,0.0992595349 431.109477,96.761299 431.109477,215.99996 L431.109477,215.99996 L431.109477,215.99996 Z" id="Stroke-36" stroke="#0A81BF"></path>
                        <path d="M172.197209,56.6033526 L172.197209,375.396246 C102.578199,356.414567 51.3553563,292.242575 51.3553563,216 C51.3553563,139.757425 102.5783,75.5853321 172.197209,56.6033526 L172.197209,56.6033526 L172.197209,56.6033526 Z M1.00465116,216 C1.00465116,335.238631 96.8115014,431.9007 214.995349,431.9007 L214.995349,0.0992595349 C96.8115014,0.0992595349 1.00465116,96.7613693 1.00465116,216 L1.00465116,216 L1.00465116,216 Z" id="Fill-37" fill="#0A81BF"></path>
                        <path d="M172.197209,56.6033526 L172.197209,375.396145 C102.578169,356.414567 51.3553965,292.242525 51.3553965,215.99996 C51.3553965,139.757425 102.578259,75.585322 172.197209,56.6033526 L172.197209,56.6033526 L172.197209,56.6033526 Z M1.00465116,215.99996 C1.00465116,335.23853 96.8115416,431.90054 214.995349,431.90054 L214.995349,0.0992595349 C96.8115416,0.0992595349 1.00465116,96.761299 1.00465116,215.99996 L1.00465116,215.99996 L1.00465116,215.99996 Z" id="Stroke-38" stroke="#0DACFF"></path>
                        <path d="M243.856671,208.369428 C244.895785,206.989112 245.415335,205.027232 245.415335,202.483729 C245.415335,199.940225 244.895785,197.982222 243.856671,196.609661 C242.817557,195.2371 241.328699,194.55083 239.390054,194.55083 C237.451408,194.55083 235.958673,195.2371 234.911804,196.609661 C233.864936,197.982222 233.341509,199.940225 233.341509,202.483729 C233.341509,205.027232 233.864936,206.989112 234.911804,208.369428 C235.958673,209.749744 237.451408,210.439891 239.390054,210.439891 C241.328699,210.439891 242.817557,209.749744 243.856671,208.369428 L243.856671,208.369428 Z M249.16078,212.03345 C247.020515,214.677763 243.771393,215.9999 239.413317,215.9999 C235.055242,215.9999 231.80612,214.677763 229.665855,212.03345 C227.52559,209.389137 226.455474,206.205929 226.455474,202.483729 C226.455474,198.823565 227.52559,195.651988 229.665855,192.968903 C231.80612,190.285817 235.055242,188.944294 239.413317,188.944294 C243.771393,188.944294 247.020515,190.285817 249.16078,192.968903 C251.301045,195.651988 252.371161,198.823565 252.371161,202.483729 C252.371161,206.205929 251.301045,209.389137 249.16078,212.03345 L249.16078,212.03345 Z M269.07445,189.758521 L275.79764,189.758521 L279.659403,208.020473 L283.614221,189.758521 L290.52352,189.758521 L283.172212,215.115881 L276.355967,215.115881 L272.377886,196.644557 L268.353277,215.115881 L261.467242,215.115881 L254.34857,189.758521 L261.467242,189.758521 L265.422059,207.950682 L269.07445,189.758521 Z M314.659539,191.212498 C316.326775,192.585059 317.16038,194.860995 317.16038,198.040375 L317.16038,215.115881 L310.367399,215.115881 L310.367399,199.692093 C310.367399,198.358304 310.189046,197.334715 309.832335,196.621293 C309.18095,195.318523 307.940236,194.667148 306.110154,194.667148 C303.861325,194.667148 302.318186,195.620947 301.480691,197.528575 C301.046434,198.53667 300.829309,199.823912 300.829309,201.390338 L300.829309,215.115881 L294.222437,215.115881 L294.222437,189.805048 L300.619937,189.805048 L300.619937,193.503966 C301.472941,192.201196 302.279405,191.262906 303.039355,190.689066 C304.404161,189.665461 306.133407,189.153667 308.227145,189.153667 C310.848194,189.153667 312.992304,189.839937 314.659539,191.212498 L314.659539,191.212498 Z M320.673189,194.713675 L320.673189,189.991157 L324.209261,189.991157 L324.209261,182.919013 L330.769605,182.919013 L330.769605,189.991157 L334.887269,189.991157 L334.887269,194.713675 L330.769605,194.713675 L330.769605,208.113528 C330.769605,209.152642 330.901431,209.80014 331.165087,210.056041 C331.428743,210.311942 332.235208,210.439891 333.584505,210.439891 C333.786124,210.439891 333.999372,210.436014 334.224255,210.428259 C334.449138,210.420505 334.67014,210.408873 334.887269,210.393364 L334.887269,215.348518 L331.746678,215.464836 C328.613826,215.5734 326.473594,215.030587 325.325915,213.836382 C324.581475,213.076432 324.209261,211.905508 324.209261,210.323573 L324.209261,194.713675 L320.673189,194.713675 Z M354.987048,208.369428 C356.026162,206.989112 356.545711,205.027232 356.545711,202.483729 C356.545711,199.940225 356.026162,197.982222 354.987048,196.609661 C353.947934,195.2371 352.459076,194.55083 350.52043,194.55083 C348.581784,194.55083 347.08905,195.2371 346.042181,196.609661 C344.995312,197.982222 344.471886,199.940225 344.471886,202.483729 C344.471886,205.027232 344.995312,206.989112 346.042181,208.369428 C347.08905,209.749744 348.581784,210.439891 350.52043,210.439891 C352.459076,210.439891 353.947934,209.749744 354.987048,208.369428 L354.987048,208.369428 Z M360.291156,212.03345 C358.150891,214.677763 354.90177,215.9999 350.543694,215.9999 C346.185618,215.9999 342.936496,214.677763 340.796231,212.03345 C338.655966,209.389137 337.58585,206.205929 337.58585,202.483729 C337.58585,198.823565 338.655966,195.651988 340.796231,192.968903 C342.936496,190.285817 346.185618,188.944294 350.543694,188.944294 C354.90177,188.944294 358.150891,190.285817 360.291156,192.968903 C362.431421,195.651988 363.501538,198.823565 363.501538,202.483729 C363.501538,206.205929 362.431421,209.389137 360.291156,212.03345 L360.291156,212.03345 Z M380.204826,189.758521 L386.928016,189.758521 L390.78978,208.020473 L394.744597,189.758521 L401.653896,189.758521 L394.302588,215.115881 L387.486344,215.115881 L383.508262,196.644557 L379.483654,215.115881 L372.597618,215.115881 L365.478946,189.758521 L372.597618,189.758521 L376.552436,207.950682 L380.204826,189.758521 Z M425.789916,191.212498 C427.457151,192.585059 428.290757,194.860995 428.290757,198.040375 L428.290757,215.115881 L421.497776,215.115881 L421.497776,199.692093 C421.497776,198.358304 421.319423,197.334715 420.962712,196.621293 C420.311327,195.318523 419.070612,194.667148 417.240531,194.667148 C414.991702,194.667148 413.448563,195.620947 412.611068,197.528575 C412.176811,198.53667 411.959686,199.823912 411.959686,201.390338 L411.959686,215.115881 L405.352814,215.115881 L405.352814,189.805048 L411.750313,189.805048 L411.750313,193.503966 C412.603317,192.201196 413.409782,191.262906 414.169731,190.689066 C415.534538,189.665461 417.263784,189.153667 419.357521,189.153667 C421.97857,189.153667 424.122681,189.839937 425.789916,191.212498 L425.789916,191.212498 Z"  opacity="0" id="owntown" stroke="#0DACFF" fill="#0A81BF">
                          <animate id="showDowntown"
                            attributeName="opacity"
                            from="0" to="1" dur="3s"
                            fill="freeze"
                            begin="clock.begin - 3" />
                          <animate id="animation2"
                            attributeName="opacity"
                            from="1" to="0" dur="2s"
                            fill="freeze"
                            begin="clock.begin"

                             />
                            <animate id="animation3"
                              attributeName="opacity"
                              from="0" to="1" dur="3s"
                              fill="freeze"
                              begin="animation.end + 2" />
                              <animate id="hideDowntown"
                                attributeName="opacity"
                                from="1" to="0" dur="3s"
                                fill="freeze"
                                begin="animation3.end" /></path>
                        <path d="M74.7840441,183.883314 L67.0209223,183.883314 L67.0209223,176.818605 L74.7840441,176.818605 L74.7840441,183.883314 Z M67.0209223,187.375376 L74.7840441,187.375376 L74.7840441,216.65497 L67.0209223,216.65497 L67.0209223,187.375376 Z M88.1613267,207.30699 C88.3224996,208.668005 88.6717022,209.635028 89.2089452,210.208087 C90.1580744,211.228849 91.9130417,211.739222 94.4738998,211.739222 C95.97818,211.739222 97.1735277,211.515374 98.0599785,211.067671 C98.9464294,210.619969 99.3896482,209.948425 99.3896482,209.053021 C99.3896482,208.193432 99.0314916,207.539796 98.3151677,207.092094 C97.5988437,206.644391 94.939531,205.874354 90.3371497,204.78196 C87.0241515,203.958188 84.6871798,202.928488 83.3261643,201.692829 C81.9651488,200.475078 81.2846513,198.720111 81.2846513,196.427874 C81.2846513,193.723751 82.3456902,191.400211 84.4677999,189.457182 C86.5899095,187.514153 89.5760401,186.542653 93.4262813,186.542653 C97.0795333,186.542653 100.05671,187.272397 102.357901,188.731908 C104.659091,190.191418 105.979794,192.711945 106.320048,196.293564 L98.6643738,196.293564 C98.5569252,195.308619 98.2793539,194.529628 97.8316514,193.956569 C96.9899708,192.917899 95.5573444,192.398572 93.5337293,192.398572 C91.8682762,192.398572 90.6818825,192.658236 89.9745126,193.177571 C89.2671427,193.696906 88.913463,194.305772 88.913463,195.004188 C88.913463,195.881684 89.2895275,196.517412 90.0416676,196.911391 C90.7938077,197.323277 93.4531204,198.030636 98.0196855,199.03349 C101.064062,199.749814 103.347311,200.833237 104.869499,202.283793 C106.373779,203.752257 107.125908,205.58781 107.125908,207.790506 C107.125908,210.691618 106.046961,213.059928 103.889035,214.895508 C101.73111,216.731088 98.3957763,217.648865 93.8829355,217.648865 C89.2805542,217.648865 85.8825435,216.677365 83.6888015,214.734336 C81.4950594,212.791308 80.3982049,210.31555 80.3982049,207.30699 L88.1613267,207.30699 Z M109.785247,193.096985 L109.785247,187.643996 L113.868273,187.643996 L113.868273,179.477944 L121.443361,179.477944 L121.443361,187.643996 L126.197937,187.643996 L126.197937,193.096985 L121.443361,193.096985 L121.443361,208.569504 C121.443361,209.769347 121.595578,210.516999 121.900015,210.812482 C122.204453,211.107966 123.13566,211.255706 124.693665,211.255706 C124.92647,211.255706 125.172703,211.251229 125.43237,211.242275 C125.692037,211.233321 125.947224,211.21989 126.197937,211.201982 L126.197937,216.92359 L122.571566,217.0579 C118.95413,217.183257 116.482849,216.556483 115.15765,215.17756 C114.298061,214.300063 113.868273,212.948022 113.868273,211.121396 L113.868273,193.096985 L109.785247,193.096985 Z M147.378635,186.690395 C147.477129,186.699349 147.6965,186.712779 148.036754,186.730688 L148.036754,194.574395 C147.553235,194.520671 147.123448,194.484855 146.747377,194.466947 C146.371307,194.449039 146.066874,194.440085 145.834069,194.440085 C142.753876,194.440085 140.685522,195.442924 139.628944,197.448631 C139.037977,198.576841 138.742498,200.3139 138.742498,202.659861 L138.742498,216.65497 L131.0331,216.65497 L131.0331,187.375376 L138.339567,187.375376 L138.339567,192.479158 C139.521502,190.527176 140.551202,189.193042 141.428699,188.476718 C142.861347,187.276876 144.723761,186.676963 147.015998,186.676963 C147.159262,186.676963 147.28014,186.68144 147.378635,186.690395 L147.378635,186.690395 Z M170.815741,208.864986 C172.015584,207.271166 172.615496,205.005825 172.615496,202.068897 C172.615496,199.131969 172.015584,196.871105 170.815741,195.286239 C169.615899,193.701372 167.896747,192.908951 165.658235,192.908951 C163.419722,192.908951 161.696094,193.701372 160.487297,195.286239 C159.278501,196.871105 158.674111,199.131969 158.674111,202.068897 C158.674111,205.005825 159.278501,207.271166 160.487297,208.864986 C161.696094,210.458807 163.419722,211.255706 165.658235,211.255706 C167.896747,211.255706 169.615899,210.458807 170.815741,208.864986 L170.815741,208.864986 Z M176.94028,213.095753 C174.468963,216.149084 170.717272,217.675727 165.685097,217.675727 C160.652921,217.675727 156.901231,216.149084 154.429913,213.095753 C151.958596,210.042423 150.722955,206.366841 150.722955,202.068897 C150.722955,197.842586 151.958596,194.180435 154.429913,191.082334 C156.901231,187.984233 160.652921,186.435205 165.685097,186.435205 C170.717272,186.435205 174.468963,187.984233 176.94028,191.082334 C179.411598,194.180435 180.647238,197.842586 180.647238,202.068897 C180.647238,206.366841 179.411598,210.042423 176.94028,213.095753 L176.94028,213.095753 Z" id="istro" opacity="0" stroke="#0A81BF" fill="#0DACFF" transform="translate(124.787682, 197.247166) scale(-1, -1) translate(-124.787682, -197.247166) ">
                          <animate id="animation"
                            attributeName="opacity"
                            from="0" to="1" dur="4s"
                            fill="freeze"
                            begin="clock.begin + 0.5" />
                            <animate id="animation4"
                              attributeName="opacity"
                              from="1" to="0" dur="4s"
                              fill="freeze"
                              begin="animation.end" /></path>
                    </g>
                </g>
            </g>
        </g>
    </g>
id="main"</svg>
