<?xml version="1.0" encoding="UTF-8" standalone="no"?>
<svg width="1110px" height="432px" viewBox="0 0 1110 432" version="1.1" xmlns="http://www.w3.org/2000/svg" xmlns:xlink="http://www.w3.org/1999/xlink" xmlns:sketch="http://www.bohemiancoding.com/sketch/ns">
    <!-- Generator: Sketch 3.2.2 (9983) - http://www.bohemiancoding.com/sketch -->
    <title>downtownD@3x</title>
    <desc>Created with Sketch.</desc>
    <defs></defs>
    <g id="Page-1" stroke="none" stroke-width="1" fill="none" fill-rule="evenodd" sketch:type="MSPage">
        <g id="downtownD@3x" sketch:type="MSLayerGroup" transform="translate(0.000000, 1.000000)">
            <g id="Group-30" transform="translate(0.000000, 263.000000)" sketch:type="MSShapeGroup">
                <path d="M1110,96.1222 C1110,96.1102 1110,161.84466 1110,161.84466 L0,161.84466 L0,96.1102 L141.2727,96.1102 L141.2727,118.0217 L393.5455,118.0217 L393.5455,96.1102 L1110,96.1102 L1110,96.1222 L1110,96.1222 Z" id="Fill-1" fill="#F5F5F5"></path>
                <path d="M1110,0.0542 C1110,0.0367 1110,96.1102 1110,96.1102 L348.8749,96.1102 C384.8205,75.025 412.1735,40.813 424.3835,0.0373 L1110,0.0367 L1110,0.0542 L1110,0.0542 Z M105.3892,0.0373 C117.5992,40.813 144.9522,75.0249 180.9019,96.1126 L0,96.1102 L0,0.0367 L105.3892,0.0373 L105.3892,0.0373 Z" id="Fill-3" fill="#CCEEFF"></path>
                <path d="M509.5909,30.3757 C507.727,30.3757 505.9222,30.6289 504.2087,31.1029 C495.6755,33.4634 489.4091,41.2992 489.4091,50.6017 C489.4091,61.7722 498.4448,70.8277 509.5909,70.8277 C520.737,70.8277 529.7727,61.7722 529.7727,50.6017 C529.7727,39.4312 520.737,30.3757 509.5909,30.3757 L509.5909,30.3757 Z M544.9091,50.6017 C544.9091,70.1501 529.0966,85.9972 509.5909,85.9972 C490.0852,85.9972 474.2727,70.1501 474.2727,50.6017 C474.2727,34.594 484.876,21.0682 499.4277,16.6937 C502.6462,15.7261 506.058,15.2062 509.5909,15.2062 C529.0966,15.2062 544.9091,31.0533 544.9091,50.6017 L544.9091,50.6017 Z" id="Fill-4" fill="#06567F"></path>
                <path d="M509.59089,30.375694 C507.72699,30.375694 505.92213,30.628915 504.208659,31.102906 C495.675489,33.463402 489.409065,41.299141 489.409065,50.6017 C489.409065,61.7722 498.444771,70.82767 509.59089,70.82767 C520.737,70.82767 529.7727,61.7722 529.7727,50.6017 C529.7727,39.431179 520.737,30.375694 509.59089,30.375694 L509.59089,30.375694 Z M544.90905,50.6017 C544.90905,70.15006 529.09659,85.99717 509.59089,85.99717 C490.08519,85.99717 474.2727,70.15006 474.2727,50.6017 C474.2727,34.593943 484.875939,21.068143 499.427622,16.6936354 C502.646214,15.7260676 506.05797,15.2062 509.59089,15.2062 C529.09659,15.2062 544.90905,31.053298 544.90905,50.6017 L544.90905,50.6017 Z" id="Stroke-5" stroke="#06567F" stroke-width="2"></path>
                <path d="M1014.136,70.8259 C1014.136,51.2776 1029.949,35.4305 1049.455,35.4305 C1068.96,35.4305 1084.773,51.2776 1084.773,70.8259 C1084.773,75.2799 1083.952,79.5416 1082.454,83.4676 L1065.21,83.4672 C1067.979,80.0066 1069.636,75.6103 1069.636,70.8259 C1069.636,59.6554 1060.601,50.6 1049.455,50.6 C1038.308,50.6 1029.273,59.6554 1029.273,70.8259 C1029.273,75.6095 1030.93,80.0053 1033.7,83.4681 C1036.47,86.9309 1016.455,83.4672 1016.455,83.4672 C1014.957,79.542 1014.136,75.2801 1014.136,70.8259 L1014.136,70.8259 Z" id="Fill-8" fill="#06567F"></path>
                <path d="M1014.13665,70.82598 C1014.13665,51.27759 1029.94911,35.43048 1049.45481,35.43048 C1068.96051,35.43048 1084.773,51.27759 1084.773,70.82598 C1084.773,75.279882 1083.95216,79.541646 1082.45381,83.4676208 L1065.2101,83.4672235 C1067.97912,80.006655 1069.63663,75.610308 1069.63663,70.82598 C1069.63663,59.655471 1060.60093,50.59998 1049.45481,50.59998 C1038.3087,50.59998 1029.273,59.655471 1029.273,70.82598 C1029.273,75.609561 1030.92999,80.005281 1033.70016,83.4681 C1036.4703,86.930919 1016.45568,83.4672235 1016.45568,83.4672235 C1014.95754,79.54203 1014.13665,75.28008 1014.13665,70.82598 L1014.13665,70.82598 Z" id="Stroke-9" stroke="#06567F" stroke-width="2"></path>
                <path d="M673.5682,70.8259 C673.5682,51.2776 689.3807,35.4305 708.8864,35.4305 C728.3921,35.4305 744.2045,51.2776 744.2045,70.8259 C744.2045,75.2799 743.3837,79.5416 741.8854,83.4676 L724.6416,83.4672 C727.4107,80.0066 729.0682,75.6103 729.0682,70.8259 C729.0682,59.6554 720.0325,50.6 708.8864,50.6 C697.7403,50.6 688.7045,59.6554 688.7045,70.8259 C688.7045,75.6095 690.3615,80.0053 693.1317,83.4681 C695.9018,86.9309 675.8872,83.4672 675.8872,83.4672 C674.3891,79.542 673.5682,75.2801 673.5682,70.8259 L673.5682,70.8259 Z" id="Fill-10" fill="#06567F"></path>
                <path d="M673.56815,70.82598 C673.56815,51.27759 689.38061,35.43048 708.88631,35.43048 C728.39201,35.43048 744.2045,51.27759 744.2045,70.82598 C744.2045,75.279882 743.383657,79.541646 741.885312,83.4676208 L724.641602,83.4672235 C727.410617,80.006655 729.068135,75.610308 729.068135,70.82598 C729.068135,59.655471 720.032429,50.59998 708.88631,50.59998 C697.7402,50.59998 688.7045,59.655471 688.7045,70.82598 C688.7045,75.609561 690.36149,80.005281 693.13166,83.4681 C695.9018,86.930919 675.88718,83.4672235 675.88718,83.4672235 C674.38904,79.54203 673.56815,75.28008 673.56815,70.82598 L673.56815,70.82598 Z" id="Stroke-11" stroke="#06567F" stroke-width="2"></path>
                <path d="M808.919,39.0433 L790.3494,39.044 C788.6517,37.6498 786.7006,36.5173 784.5686,35.7141 C784.5682,50.2705 784.5682,85.9972 784.5682,85.9972 L769.4318,85.9972 L769.4318,35.7139 C767.3003,36.5168 765.3498,37.6488 763.6529,39.0421 L745.0806,39.044 C747.8199,33.678 752.0751,29.1127 757.3312,25.8271 C758.0434,25.3819 758.774,24.9601 759.5217,24.5631 C761.8119,23.347 764.2625,22.3625 766.8367,21.6439 C770.0553,20.7455 773.4671,20.2627 777,20.2627 C791.0886,20.2627 803.2505,27.9395 808.919,39.0433 L808.919,39.0433 Z" id="Fill-12" fill="#06567F"></path>
                <path d="M808.91904,39.043246 L790.34934,39.043978 C788.65173,37.649815 786.70059,36.517309 784.56855,35.71408 C784.56819,50.27044 784.56819,85.99717 784.56819,85.99717 L769.431813,85.99717 L769.431813,35.713897 C767.30031,36.516799 765.349773,37.648765 763.652913,39.042085 L745.0806,39.043978 C747.819938,33.677956 752.075115,29.112688 757.331196,25.827052 C758.043405,25.381843 758.773992,24.960127 759.521676,24.563101 C761.811909,23.346964 764.262543,22.362466 766.836738,21.6438901 C770.055327,20.7454342 773.467083,20.2627 777,20.2627 C791.0886,20.2627 803.25048,27.939457 808.91904,39.043246 L808.91904,39.043246 Z" id="Stroke-13" stroke="#06567F" stroke-linecap="square" stroke-linejoin="round"></path>
                <path d="M852.6818,35.4322 C850.8179,35.4322 849.0131,35.6854 847.2996,36.1594 C838.7664,38.5199 832.5,46.3557 832.5,55.6582 C832.5,66.8287 841.5357,75.8842 852.6818,75.8842 C863.8279,75.8842 872.8636,66.8287 872.8636,55.6582 C872.8636,44.4877 863.8279,35.4322 852.6818,35.4322 L852.6818,35.4322 Z M888,55.6582 C888,75.2066 872.1875,91.0537 852.6818,91.0537 C833.1761,91.0537 817.3636,75.2066 817.3636,55.6582 C817.3636,39.6505 827.9669,26.1247 842.5186,21.7502 C845.7371,20.7826 849.1489,20.2627 852.6818,20.2627 C872.1875,20.2627 888,36.1098 888,55.6582 L888,55.6582 Z" id="Fill-14" fill="#06567F"></path>
                <path d="M852.68179,35.432194 C850.81789,35.432194 849.01303,35.685415 847.299559,36.159406 C838.766389,38.519902 832.499965,46.355641 832.499965,55.6582 C832.499965,66.8287 841.535671,75.88417 852.68179,75.88417 C863.8279,75.88417 872.8636,66.8287 872.8636,55.6582 C872.8636,44.487679 863.8279,35.432194 852.68179,35.432194 L852.68179,35.432194 Z M887.99995,55.6582 C887.99995,75.20656 872.18749,91.05367 852.68179,91.05367 C833.17609,91.05367 817.3636,75.20656 817.3636,55.6582 C817.3636,39.650443 827.966839,26.124643 842.518522,21.7501354 C845.737114,20.7825676 849.14887,20.2627 852.68179,20.2627 C872.18749,20.2627 887.99995,36.109798 887.99995,55.6582 L887.99995,55.6582 Z" id="Stroke-15" stroke="#06567F" stroke-width="2"></path>
                <path d="M509.5909,30.3757 C507.727,30.3757 505.9222,30.6289 504.2087,31.1029 C495.6755,33.4634 489.4091,41.2992 489.4091,50.6017 C489.4091,61.7722 498.4448,70.8277 509.5909,70.8277 C520.737,70.8277 529.7727,61.7722 529.7727,50.6017 C529.7727,39.4312 520.737,30.3757 509.5909,30.3757 L509.5909,30.3757 Z M544.9091,50.6017 C544.9091,70.1501 529.0966,85.9972 509.5909,85.9972 C490.0852,85.9972 474.2727,70.1501 474.2727,50.6017 C474.2727,34.594 484.876,21.0682 499.4277,16.6937 C502.6462,15.7261 506.058,15.2062 509.5909,15.2062 C529.0966,15.2062 544.9091,31.0533 544.9091,50.6017 L544.9091,50.6017 Z" id="Fill-18" fill="#0A81BF"></path>
                <path d="M509.59089,30.375694 C507.72699,30.375694 505.92213,30.628915 504.208659,31.102906 C495.675489,33.463402 489.409065,41.299141 489.409065,50.6017 C489.409065,61.7722 498.444771,70.82767 509.59089,70.82767 C520.737,70.82767 529.7727,61.7722 529.7727,50.6017 C529.7727,39.431179 520.737,30.375694 509.59089,30.375694 L509.59089,30.375694 Z M544.90905,50.6017 C544.90905,70.15006 529.09659,85.99717 509.59089,85.99717 C490.08519,85.99717 474.2727,70.15006 474.2727,50.6017 C474.2727,34.593943 484.875939,21.068143 499.427622,16.6936354 C502.646214,15.7260676 506.05797,15.2062 509.59089,15.2062 C529.09659,15.2062 544.90905,31.053298 544.90905,50.6017 L544.90905,50.6017 Z" id="Stroke-19" stroke="#0A81BF"></path>
                <path d="M673.5682,70.8259 C673.5682,51.2776 689.3807,35.4305 708.8864,35.4305 C728.3921,35.4305 744.2045,51.2776 744.2045,70.8259 C744.2045,75.2799 743.3837,79.5416 741.8854,83.4676 L724.6416,83.4672 C727.4107,80.0066 729.0682,75.6103 729.0682,70.8259 C729.0682,59.6554 720.0325,50.6 708.8864,50.6 C697.7403,50.6 688.7045,59.6554 688.7045,70.8259 C688.7045,75.6095 690.3615,80.0053 693.1317,83.4681 C695.9018,86.9309 675.8872,83.4672 675.8872,83.4672 C674.3891,79.542 673.5682,75.2801 673.5682,70.8259 L673.5682,70.8259 Z" id="Fill-21" fill="#0A81BF"></path>
                <path d="M673.56815,70.82598 C673.56815,51.27759 689.38061,35.43048 708.88631,35.43048 C728.39201,35.43048 744.2045,51.27759 744.2045,70.82598 C744.2045,75.279882 743.383657,79.541646 741.885312,83.4676208 L724.641602,83.4672235 C727.410617,80.006655 729.068135,75.610308 729.068135,70.82598 C729.068135,59.655471 720.032429,50.59998 708.88631,50.59998 C697.7402,50.59998 688.7045,59.655471 688.7045,70.82598 C688.7045,75.609561 690.36149,80.005281 693.13166,83.4681 C695.9018,86.930919 675.88718,83.4672235 675.88718,83.4672235 C674.38904,79.54203 673.56815,75.28008 673.56815,70.82598 L673.56815,70.82598 Z" id="Stroke-22" stroke="#0A81BF"></path>
                <path d="M808.919,39.0433 L790.3494,39.044 C788.6517,37.6498 786.7006,36.5173 784.5686,35.7141 C784.5682,50.2705 784.5682,85.9972 784.5682,85.9972 L769.4318,85.9972 L769.4318,35.7139 C767.3003,36.5168 765.3498,37.6488 763.6529,39.0421 L745.0806,39.044 C747.8199,33.678 752.0751,29.1127 757.3312,25.8271 C758.0434,25.3819 758.774,24.9601 759.5217,24.5631 C761.8119,23.347 764.2625,22.3625 766.8367,21.6439 C770.0553,20.7455 773.4671,20.2627 777,20.2627 C791.0886,20.2627 803.2505,27.9395 808.919,39.0433 L808.919,39.0433 Z" id="Fill-23" fill="#0DACFF"></path>
                <path d="M852.6818,35.4322 C850.8179,35.4322 849.0131,35.6854 847.2996,36.1594 C838.7664,38.5199 832.5,46.3557 832.5,55.6582 C832.5,66.8287 841.5357,75.8842 852.6818,75.8842 C863.8279,75.8842 872.8636,66.8287 872.8636,55.6582 C872.8636,44.4877 863.8279,35.4322 852.6818,35.4322 L852.6818,35.4322 Z M888,55.6582 C888,75.2066 872.1875,91.0537 852.6818,91.0537 C833.1761,91.0537 817.3636,75.2066 817.3636,55.6582 C817.3636,39.6505 827.9669,26.1247 842.5186,21.7502 C845.7371,20.7826 849.1489,20.2627 852.6818,20.2627 C872.1875,20.2627 888,36.1098 888,55.6582 L888,55.6582 Z" id="Fill-24" fill="#0A81BF"></path>
                <path d="M852.68179,35.432194 C850.81789,35.432194 849.01303,35.685415 847.299559,36.159406 C838.766389,38.519902 832.499965,46.355641 832.499965,55.6582 C832.499965,66.8287 841.535671,75.88417 852.68179,75.88417 C863.8279,75.88417 872.8636,66.8287 872.8636,55.6582 C872.8636,44.487679 863.8279,35.432194 852.68179,35.432194 L852.68179,35.432194 Z M887.99995,55.6582 C887.99995,75.20656 872.18749,91.05367 852.68179,91.05367 C833.17609,91.05367 817.3636,75.20656 817.3636,55.6582 C817.3636,39.650443 827.966839,26.124643 842.518522,21.7501354 C845.737114,20.7825676 849.14887,20.2627 852.68179,20.2627 C872.18749,20.2627 887.99995,36.109798 887.99995,55.6582 L887.99995,55.6582 Z" id="Stroke-25" stroke="#0A81BF"></path>
                <g id="Group" transform="translate(900.000000, 40.000000)">
                    <path d="M49.4752,32.6343 C49.9579,33.1028 50.4489,33.5527 50.9479,33.9838 L49.4752,32.6343 Z M98.7059,0.4889 C97.1564,22.7041 85.4579,40.9407 68.6085,40.9407 C62.255,40.9407 56.1689,38.4943 50.9479,33.9838 C45.7301,38.4942 39.644,40.9407 33.2903,40.9407 C16.1248,40.9407 2.0395,23.149 0.6136,0.4889 L5.6809,0.4887 C7.0899,19.3838 18.9133,34.1339 33.2903,34.1339 C39.1849,34.1339 44.7957,31.6524 49.4749,27.1092 L50.9482,25.6787 L52.4218,27.1089 C57.1031,31.6525 62.714,34.1339 68.6085,34.1339 C82.9855,34.1339 94.8089,19.3838 96.2179,0.4887 L98.7059,0.4889 L98.7059,0.4889 Z" id="Fill-16" fill="#06567F"></path>
                    <path d="M49.47517,32.63433 C49.95784,33.10278 50.44891,33.55269 50.94787,33.98376 L49.47517,32.63433 Z M98.70589,0.488853041 C97.15633,22.704087 85.45789,40.94067 68.60845,40.94067 C62.25493,40.94067 56.16883,38.49426 50.94787,33.98376 C45.73006,38.49414 39.64393,40.94067 33.29026,40.94067 C16.124788,40.94067 2.039503,23.148972 0.6136,0.488850896 L5.680876,0.4887 C7.089844,19.383795 18.913252,34.13385 33.29026,34.13385 C39.18484,34.13385 44.79565,31.65234 49.47484,27.109197 L50.94817,25.678674 L52.42171,27.108855 C57.10306,31.65249 62.71402,34.13385 68.60845,34.13385 C82.98544,34.13385 94.80886,19.383795 96.21781,0.48872448 L98.70589,0.488853041 L98.70589,0.488853041 Z" id="Stroke-17" stroke="#06567F" stroke-width="3"></path>
                    <path d="M49.594,32.6343 C50.0767,33.1028 50.5677,33.5527 51.0667,33.9838 L49.594,32.6343 Z M98.8247,0.4889 C97.2752,22.7041 85.5767,40.9407 68.7273,40.9407 C62.3738,40.9407 56.2877,38.4943 51.0667,33.9838 C45.8489,38.4942 39.7628,40.9407 33.4091,40.9407 C16.2436,40.9407 2.1583,23.149 0.7324,0.4889 L5.7997,0.4887 C7.2087,19.3838 19.0321,34.1339 33.4091,34.1339 C39.3037,34.1339 44.9145,31.6524 49.5937,27.1092 L51.067,25.6787 L52.5406,27.1089 C57.2219,31.6525 62.8328,34.1339 68.7273,34.1339 C83.1043,34.1339 94.9277,19.3838 96.3367,0.4887 L98.8247,0.4889 L98.8247,0.4889 Z" id="Fill-26" fill="#0DACFF"></path>
                    <path d="M49.59397,32.63433 C50.07664,33.10278 50.56771,33.55269 51.06667,33.98376 L49.59397,32.63433 Z M98.82469,0.488853041 C97.27513,22.704087 85.57669,40.94067 68.72725,40.94067 C62.37373,40.94067 56.28763,38.49426 51.06667,33.98376 C45.84886,38.49414 39.76273,40.94067 33.40906,40.94067 C16.243588,40.94067 2.158303,23.148972 0.7324,0.488850896 L5.799676,0.4887 C7.208644,19.383795 19.032052,34.13385 33.40906,34.13385 C39.30364,34.13385 44.91445,31.65234 49.59364,27.109197 L51.06697,25.678674 L52.54051,27.108855 C57.22186,31.65249 62.83282,34.13385 68.72725,34.13385 C83.10424,34.13385 94.92766,19.383795 96.33661,0.48872448 L98.82469,0.488853041 L98.82469,0.488853041 Z" id="Stroke-27" stroke="#0DACFF" stroke-width="2"></path>
                    <path d="M49.59397,32.63433 C50.07664,33.10278 50.56771,33.55269 51.06667,33.98376 L49.59397,32.63433 Z M98.82469,0.488853041 C97.27513,22.704087 85.57669,40.94067 68.72725,40.94067 C62.37373,40.94067 56.28763,38.49426 51.06667,33.98376 C45.84886,38.49414 39.76273,40.94067 33.40906,40.94067 C16.243588,40.94067 2.158303,23.148972 0.7324,0.488850896 L5.799676,0.4887 C7.208644,19.383795 19.032052,34.13385 33.40906,34.13385 C39.30364,34.13385 44.91445,31.65234 49.59364,27.109197 L51.06697,25.678674 L52.54051,27.108855 C57.22186,31.65249 62.83282,34.13385 68.72725,34.13385 C83.10424,34.13385 94.92766,19.383795 96.33661,0.48872448 L98.82469,0.488853041 L98.82469,0.488853041 Z" id="Stroke-28" stroke="#0DACFF" stroke-width="2"></path>
                </g>
                <g id="Group-2" transform="translate(561.000000, 40.000000)">
                    <path d="M49.4752,32.6343 C49.9579,33.1028 50.4489,33.5527 50.9479,33.9838 L49.4752,32.6343 Z M98.7059,0.4889 C97.1564,22.7041 85.4579,40.9407 68.6085,40.9407 C62.255,40.9407 56.1689,38.4943 50.9479,33.9838 C45.7301,38.4942 39.644,40.9407 33.2903,40.9407 C16.1248,40.9407 2.0395,23.149 0.6136,0.4889 L5.6809,0.4887 C7.0899,19.3838 18.9133,34.1339 33.2903,34.1339 C39.1849,34.1339 44.7957,31.6524 49.4749,27.1092 L50.9482,25.6787 L52.4218,27.1089 C57.1031,31.6525 62.714,34.1339 68.6085,34.1339 C82.9855,34.1339 94.8089,19.3838 96.2179,0.4887 L98.7059,0.4889 L98.7059,0.4889 Z" id="Fill-16" fill="#06567F"></path>
                    <path d="M49.47517,32.63433 C49.95784,33.10278 50.44891,33.55269 50.94787,33.98376 L49.47517,32.63433 Z M98.70589,0.488853041 C97.15633,22.704087 85.45789,40.94067 68.60845,40.94067 C62.25493,40.94067 56.16883,38.49426 50.94787,33.98376 C45.73006,38.49414 39.64393,40.94067 33.29026,40.94067 C16.124788,40.94067 2.039503,23.148972 0.6136,0.488850896 L5.680876,0.4887 C7.089844,19.383795 18.913252,34.13385 33.29026,34.13385 C39.18484,34.13385 44.79565,31.65234 49.47484,27.109197 L50.94817,25.678674 L52.42171,27.108855 C57.10306,31.65249 62.71402,34.13385 68.60845,34.13385 C82.98544,34.13385 94.80886,19.383795 96.21781,0.48872448 L98.70589,0.488853041 L98.70589,0.488853041 Z" id="Stroke-17" stroke="#06567F" stroke-width="3"></path>
                    <path d="M49.594,32.6343 C50.0767,33.1028 50.5677,33.5527 51.0667,33.9838 L49.594,32.6343 Z M98.8247,0.4889 C97.2752,22.7041 85.5767,40.9407 68.7273,40.9407 C62.3738,40.9407 56.2877,38.4943 51.0667,33.9838 C45.8489,38.4942 39.7628,40.9407 33.4091,40.9407 C16.2436,40.9407 2.1583,23.149 0.7324,0.4889 L5.7997,0.4887 C7.2087,19.3838 19.0321,34.1339 33.4091,34.1339 C39.3037,34.1339 44.9145,31.6524 49.5937,27.1092 L51.067,25.6787 L52.5406,27.1089 C57.2219,31.6525 62.8328,34.1339 68.7273,34.1339 C83.1043,34.1339 94.9277,19.3838 96.3367,0.4887 L98.8247,0.4889 L98.8247,0.4889 Z" id="Fill-26" fill="#0DACFF"></path>
                    <path d="M49.59397,32.63433 C50.07664,33.10278 50.56771,33.55269 51.06667,33.98376 L49.59397,32.63433 Z M98.82469,0.488853041 C97.27513,22.704087 85.57669,40.94067 68.72725,40.94067 C62.37373,40.94067 56.28763,38.49426 51.06667,33.98376 C45.84886,38.49414 39.76273,40.94067 33.40906,40.94067 C16.243588,40.94067 2.158303,23.148972 0.7324,0.488850896 L5.799676,0.4887 C7.208644,19.383795 19.032052,34.13385 33.40906,34.13385 C39.30364,34.13385 44.91445,31.65234 49.59364,27.109197 L51.06697,25.678674 L52.54051,27.108855 C57.22186,31.65249 62.83282,34.13385 68.72725,34.13385 C83.10424,34.13385 94.92766,19.383795 96.33661,0.48872448 L98.82469,0.488853041 L98.82469,0.488853041 Z" id="Stroke-27" stroke="#0DACFF" stroke-width="2"></path>
                    <path d="M49.59397,32.63433 C50.07664,33.10278 50.56771,33.55269 51.06667,33.98376 L49.59397,32.63433 Z M98.82469,0.488853041 C97.27513,22.704087 85.57669,40.94067 68.72725,40.94067 C62.37373,40.94067 56.28763,38.49426 51.06667,33.98376 C45.84886,38.49414 39.76273,40.94067 33.40906,40.94067 C16.243588,40.94067 2.158303,23.148972 0.7324,0.488850896 L5.799676,0.4887 C7.208644,19.383795 19.032052,34.13385 33.40906,34.13385 C39.30364,34.13385 44.91445,31.65234 49.59364,27.109197 L51.06697,25.678674 L52.54051,27.108855 C57.22186,31.65249 62.83282,34.13385 68.72725,34.13385 C83.10424,34.13385 94.92766,19.383795 96.33661,0.48872448 L98.82469,0.488853041 L98.82469,0.488853041 Z" id="Stroke-28" stroke="#0DACFF" stroke-width="2"></path>
                </g>
                <path d="M1014.136,70.8259 C1014.136,51.2776 1029.949,35.4305 1049.455,35.4305 C1068.96,35.4305 1084.773,51.2776 1084.773,70.8259 C1084.773,75.2799 1083.952,79.5416 1082.454,83.4676 L1065.21,83.4672 C1067.979,80.0066 1069.636,75.6103 1069.636,70.8259 C1069.636,59.6554 1060.601,50.6 1049.455,50.6 C1038.308,50.6 1029.273,59.6554 1029.273,70.8259 C1029.273,75.6095 1030.93,80.0053 1033.7,83.4681 C1036.47,86.9309 1016.455,83.4672 1016.455,83.4672 C1014.957,79.542 1014.136,75.2801 1014.136,70.8259 L1014.136,70.8259 Z" id="Fill-28" fill="#0A81BF"></path>
                <path d="M1014.13665,70.82598 C1014.13665,51.27759 1029.94911,35.43048 1049.45481,35.43048 C1068.96051,35.43048 1084.773,51.27759 1084.773,70.82598 C1084.773,75.279882 1083.95216,79.541646 1082.45381,83.4676208 L1065.2101,83.4672235 C1067.97912,80.006655 1069.63663,75.610308 1069.63663,70.82598 C1069.63663,59.655471 1060.60093,50.59998 1049.45481,50.59998 C1038.3087,50.59998 1029.273,59.655471 1029.273,70.82598 C1029.273,75.609561 1030.92999,80.005281 1033.70016,83.4681 C1036.4703,86.930919 1016.45568,83.4672235 1016.45568,83.4672235 C1014.95754,79.54203 1014.13665,75.28008 1014.13665,70.82598 L1014.13665,70.82598 Z" id="Stroke-29" stroke="#0A81BF"></path>
            </g>
            <text id="Istro" sketch:type="MSTextLayer" font-family="Helvetica" font-size="42" font-weight="bold" letter-spacing="-0.0084" fill="#06567F">
                <tspan x="444" y="400.5">I</tspan>
                <tspan x="455.660545" y="400.5" letter-spacing="0.0084">s</tspan>
                <tspan x="479.027344" y="400.5">t</tspan>
                <tspan x="493.013672" y="400.5" letter-spacing="0.0084">r</tspan>
                <tspan x="509.366798" y="400.5">o</tspan>
            </text>
            <g id="Group-39" transform="translate(50.000000, 0.000000)" sketch:type="MSShapeGroup">
                <path d="M257.7727,56.3413 L257.7727,373.6583 C327.5353,354.7645 378.8636,290.8896 378.8636,215 C378.8636,139.1104 327.5352,75.2354 257.7727,56.3413 L257.7727,56.3413 Z M177.0455,55.0612 C155.3241,60.2035 135.2719,69.6749 117.8456,82.5168 C77.2529,112.4305 50.9091,160.6321 50.9091,215 C50.9091,292.7075 104.7261,357.8179 177.0447,374.9386 C177.0455,296.8591 177.0455,136.5388 177.0455,55.0612 L177.0455,55.0612 Z M429.3182,215 C429.3182,333.6866 333.3138,429.90116 214.8864,429.90116 C96.4589,429.90116 0.45455,333.6866 0.45455,215 C0.45455,148.301 30.77436,88.699 78.3547,49.282 C92.1171,37.8808 107.3236,28.1683 123.6582,20.4613 C151.3405,7.4002 182.2627,0.0988 214.8864,0.0988 C333.3138,0.0988 429.3182,96.3134 429.3182,215 L429.3182,215 Z" id="Fill-32" fill="#0DACFF"></path>
                <path d="M257.77274,56.3413 L257.77274,373.6582 C327.53525,354.7645 378.86375,290.88955 378.86375,214.99996 C378.86375,139.1104 327.53525,75.23539 257.77274,56.3413 L257.77274,56.3413 Z M177.04547,55.0612 C155.32409,60.20341 135.27188,69.67492 117.84566,82.51672 C77.2529,112.4305 50.90909,160.63204 50.90909,214.99996 C50.90909,292.70749 104.72609,357.8179 177.04475,374.9386 C177.04547,296.85904 177.04547,136.53871 177.04547,55.0612 L177.04547,55.0612 Z M429.31805,214.99996 C429.31805,333.6865 333.31385,429.901 214.88636,429.901 C96.45896,429.901 0.45455,333.6865 0.45455,214.99996 C0.45455,148.30093 30.77438,88.69897 78.35468,49.282 C92.11712,37.88077 107.32364,28.168282 123.65822,20.461273 C151.34054,7.400146 182.26265,0.0988 214.88636,0.0988 C333.31385,0.0988 429.31805,96.31333 429.31805,214.99996 L429.31805,214.99996 Z" id="Stroke-34" stroke="#06567F" stroke-width="2" stroke-linecap="round" stroke-linejoin="round"></path>
                <path d="M258.7136,56.3413 L258.7136,373.6583 C328.0104,354.7645 378.996,290.8896 378.996,215 C378.996,139.1104 328.0103,75.2354 258.7136,56.3413 L258.7136,56.3413 Z M429.1136,215 C429.1136,333.6866 333.7503,429.90116 216.1136,429.90116 L216.1136,0.0988 C333.7503,0.0988 429.1136,96.3134 429.1136,215 L429.1136,215 Z" id="Fill-35" fill="#0DACFF"></path>
                <path d="M258.7136,56.3413 L258.7136,373.6582 C328.01033,354.7645 378.99596,290.88955 378.99596,214.99996 C378.99596,139.1104 328.01024,75.23539 258.7136,56.3413 L258.7136,56.3413 Z M429.1136,214.99996 C429.1136,333.6865 333.75026,429.901 216.1136,429.901 L216.1136,0.0988 C333.75026,0.0988 429.1136,96.31333 429.1136,214.99996 L429.1136,214.99996 Z" id="Stroke-36" stroke="#0A81BF"></path>
                <path d="M171.4,56.3413 L171.4,373.6583 C102.1033,354.7645 51.1176,290.8896 51.1176,215 C51.1176,139.1104 102.1034,75.2354 171.4,56.3413 L171.4,56.3413 Z M1,215 C1,333.6866 96.3633,429.90116 214,429.90116 L214,0.0988 C96.3633,0.0988 1,96.3134 1,215 L1,215 Z" id="Fill-37" fill="#0A81BF"></path>
                <path d="M171.4,56.3413 L171.4,373.6582 C102.10327,354.7645 51.11764,290.88955 51.11764,214.99996 C51.11764,139.1104 102.10336,75.23539 171.4,56.3413 L171.4,56.3413 Z M1,214.99996 C1,333.6865 96.36334,429.901 214,429.901 L214,0.0988 C96.36334,0.0988 1,96.31333 1,214.99996 L1,214.99996 Z" id="Stroke-38" stroke="#0DACFF"></path>
            </g>
        </g>
    </g>
</svg>